<?xml version="1.0" encoding="utf-8"?>
<!-- Uploaded to: SVG Repo, www.svgrepo.com, Generator: SVG Repo Mixer Tools -->
<svg width="800px" height="800px" viewBox="-10.53 0 63.183 63.183" xmlns="http://www.w3.org/2000/svg">
  <g id="Group_32" data-name="Group 32" transform="translate(-509.305 -316.817)">
    <path id="Rectangle_18" data-name="Rectangle 18" d="M4.212,0h33.7a4.212,4.212,0,0,1,4.212,4.212v54.76a4.211,4.211,0,0,1-4.211,4.211H4.213A4.213,4.213,0,0,1,0,58.97V4.212A4.212,4.212,0,0,1,4.212,0Z" transform="translate(509.305 316.817)" fill="#dce2e9"/>
    <path id="Path_75" data-name="Path 75" d="M547.213,378.946h-33.7a4.211,4.211,0,0,1-4.211-4.211v1.053A4.211,4.211,0,0,0,513.516,380h33.7a4.213,4.213,0,0,0,4.213-4.212v-1.053A4.212,4.212,0,0,1,547.213,378.946Z" fill="#bfc8d5"/>
    <path id="Rectangle_19" data-name="Rectangle 19" d="M2.108,0H33.7A2.106,2.106,0,0,1,35.8,2.106V45.281A2.105,2.105,0,0,1,33.7,47.387H2.106A2.106,2.106,0,0,1,0,45.28V2.108A2.108,2.108,0,0,1,2.108,0Z" transform="translate(512.463 319.978)" fill="#5a6271"/>
    <path id="Path_76" data-name="Path 76" d="M533.523,372.629a3.159,3.159,0,1,1-3.158-3.159A3.158,3.158,0,0,1,533.523,372.629Z" fill="#8c93a1"/>
    <path id="Path_77" data-name="Path 77" d="M513.249,366.886l34.232-46.431a2.085,2.085,0,0,0-1.321-.477H514.569a2.105,2.105,0,0,0-2.106,2.105v43.174A2.094,2.094,0,0,0,513.249,366.886Z" fill="#8c93a1" opacity="0.5"/>
  </g>
</svg>